<?xml version="1.0" standalone="no"?>
<!DOCTYPE svg PUBLIC "-//W3C//DTD SVG 20010904//EN"
 "http://www.w3.org/TR/2001/REC-SVG-20010904/DTD/svg10.dtd">
<svg version="1.0" xmlns="http://www.w3.org/2000/svg"
 width="253.000000pt" height="253.000000pt" viewBox="0 0 253.000000 253.000000"
 preserveAspectRatio="xMidYMid meet">
<metadata>
Created by potrace 1.14, written by Peter Selinger 2001-2017
</metadata>
<g transform="translate(0.000000,253.000000) scale(0.100000,-0.100000)"
fill="#000000" stroke="none">
<path d="M1197 2151 c-62 -31 -112 -92 -122 -151 l-7 -40 -83 0 -83 0 -7 -52
c-4 -29 -8 -60 -10 -68 -3 -18 -10 -59 -25 -165 -7 -44 -14 -87 -15 -97 -2 -9
-7 -38 -11 -65 -3 -26 -8 -57 -10 -68 -2 -11 -6 -40 -9 -65 -3 -25 -8 -54 -10
-66 -7 -33 -15 -85 -19 -131 l-4 -43 208 0 209 0 -9 28 c-5 15 -20 54 -34 87
l-25 60 -80 3 c-45 2 -81 6 -81 10 0 4 4 34 10 67 5 33 11 87 14 120 3 33 8
79 12 103 7 47 11 75 13 108 1 20 6 21 97 20 l97 -1 31 -72 c18 -40 35 -75 37
-78 3 -3 20 31 38 74 l33 79 96 -1 c89 -2 97 -4 98 -22 1 -11 5 -45 9 -75 9
-69 12 -99 21 -175 3 -33 10 -79 14 -102 4 -23 5 -45 2 -48 -3 -3 -39 -5 -79
-5 l-74 0 -25 -57 c-13 -32 -29 -66 -34 -75 -27 -47 -23 -48 188 -48 108 0
202 4 209 8 8 5 9 21 3 52 -5 25 -11 65 -15 90 -3 25 -10 70 -15 100 -5 30
-12 73 -15 95 -4 22 -8 51 -11 65 -2 14 -6 45 -10 70 -3 25 -7 52 -9 60 -2 8
-7 38 -11 65 -3 28 -8 59 -10 70 -2 11 -6 38 -9 60 -4 22 -7 49 -9 60 -2 18
-12 21 -87 25 l-84 5 -6 36 c-7 49 -42 101 -86 132 -69 47 -134 53 -206 18z
m153 -43 c14 -7 35 -23 48 -35 24 -24 55 -97 45 -107 -4 -3 -27 -6 -53 -6
l-47 0 -31 -67 -30 -68 -26 58 c-14 32 -26 62 -26 67 0 6 -25 10 -55 10 -52 0
-55 1 -51 23 21 111 131 172 226 125z"/>
<path d="M1060 1661 c0 -3 33 -87 74 -186 148 -363 141 -351 163 -322 9 10
137 321 194 469 l19 47 -53 0 -53 -1 -27 -67 c-70 -175 -91 -221 -97 -214 -4
4 -31 67 -61 138 -29 72 -58 133 -63 137 -13 9 -96 8 -96 -1z"/>
<path d="M359 950 c-13 -8 -15 -29 -15 -122 1 -105 3 -113 21 -113 17 0 20 8
23 58 3 50 6 59 27 69 39 18 55 -4 55 -74 0 -56 1 -59 23 -56 20 3 22 8 22 72
-1 59 -4 71 -24 87 -29 23 -59 24 -83 2 -17 -15 -18 -14 -18 30 0 50 -7 60
-31 47z"/>
<path d="M1206 951 c-10 -16 5 -42 23 -39 21 4 21 42 -1 46 -9 2 -19 -1 -22
-7z"/>
<path d="M163 925 c-49 -34 -33 -86 34 -111 55 -20 67 -33 51 -52 -13 -15 -61
-10 -84 8 -11 10 -17 10 -29 0 -22 -18 -19 -26 18 -41 43 -18 56 -20 94 -14
33 6 62 43 57 73 -1 6 -2 16 -3 20 -1 9 -27 23 -83 46 -28 11 -36 19 -31 31 6
17 47 17 84 1 24 -11 35 25 13 41 -24 18 -95 16 -121 -2z"/>
<path d="M1723 830 c0 -61 3 -113 8 -115 22 -14 36 9 36 63 1 88 2 90 23 43
11 -23 17 -48 13 -54 -3 -6 -1 -7 5 -3 7 4 12 3 12 -3 0 -6 9 -15 19 -21 17
-9 23 -2 50 53 17 34 31 59 32 55 1 -5 2 -36 3 -70 1 -61 3 -65 35 -59 5 0 9
51 9 111 l0 110 -27 0 c-22 0 -31 -10 -61 -71 l-35 -70 -34 70 c-30 61 -39 71
-62 71 l-26 0 0 -110z"/>
<path d="M2350 905 c0 -15 -6 -25 -14 -25 -8 0 -13 -8 -11 -17 1 -10 8 -17 14
-15 7 1 11 -19 11 -58 0 -50 3 -61 21 -70 30 -17 64 -9 65 16 1 14 -5 20 -20
20 -18 -1 -21 5 -21 44 0 39 3 45 23 48 31 5 29 32 -3 32 -20 0 -25 5 -25 25
0 18 -5 25 -20 25 -15 0 -20 -7 -20 -25z"/>
<path d="M589 875 c-38 -21 -52 -67 -35 -110 17 -41 40 -54 89 -50 48 3 77 30
84 81 4 32 1 43 -20 62 -31 29 -84 37 -118 17z m81 -40 c17 -20 16 -65 -1 -76
-46 -29 -94 15 -71 66 13 29 52 34 72 10z"/>
<path d="M769 883 c-3 -30 -4 -210 -1 -220 2 -7 13 -13 23 -13 15 0 19 7 19
40 0 39 1 39 27 29 75 -28 137 47 102 124 -19 43 -99 60 -120 26 -7 -11 -9
-10 -9 4 0 16 -39 26 -41 10z m108 -39 c45 -12 28 -94 -21 -94 -41 0 -58 38
-36 81 11 20 21 22 57 13z"/>
<path d="M988 872 c-3 -14 -3 -171 1 -209 0 -7 10 -13 21 -13 17 0 20 7 20 40
0 41 7 49 27 29 7 -7 25 -9 46 -5 58 11 83 70 55 131 -15 32 -75 53 -107 36
-11 -7 -21 -8 -21 -3 0 16 -38 10 -42 -6z m129 -52 c15 -31 -2 -63 -38 -68
-42 -7 -65 51 -33 83 23 22 56 15 71 -15z"/>
<path d="M1204 801 c0 -83 1 -88 20 -87 19 1 21 8 24 80 3 78 -3 95 -33 96 -6
0 -10 -36 -11 -89z"/>
<path d="M1300 800 c0 -72 3 -90 14 -90 22 0 30 20 29 66 -2 49 20 76 55 67
22 -5 25 -15 24 -83 0 -35 11 -50 37 -50 17 0 12 143 -7 162 -17 17 -91 16
-101 -1 -7 -10 -9 -9 -14 3 -4 9 -13 16 -22 16 -12 0 -15 -16 -15 -90z"/>
<path d="M1524 865 c-64 -64 8 -177 87 -135 21 12 26 -3 10 -29 -9 -14 -56
-18 -82 -7 -11 5 -19 1 -23 -9 -10 -26 56 -44 110 -29 34 9 47 47 48 139 1 76
-1 86 -19 91 -11 4 -21 2 -23 -5 -2 -6 -8 -8 -14 -5 -29 18 -70 13 -94 -11z
m95 -29 c15 -18 10 -62 -9 -73 -19 -13 -58 1 -67 22 -3 9 -1 27 5 41 13 27 52
33 71 10z"/>
<path d="M2034 877 c-8 -4 -14 -14 -14 -22 0 -11 12 -14 46 -12 30 1 48 -2 51
-10 3 -9 -6 -13 -26 -13 -40 0 -81 -19 -82 -39 -4 -56 16 -71 94 -67 l61 2 2
62 c2 83 -19 113 -77 109 -22 -1 -47 -6 -55 -10z m82 -104 c-5 -30 -66 -38
-66 -8 0 15 15 23 47 24 14 1 20 -4 19 -16z"/>
<path d="M2217 883 c-4 -3 -7 -43 -7 -88 0 -79 1 -82 23 -82 21 0 23 4 22 46
-2 52 9 81 29 81 20 0 36 24 27 39 -7 11 -13 11 -32 1 -17 -10 -24 -10 -27 -1
-4 12 -25 15 -35 4z"/>
<path d="M584 561 c-60 -37 -98 -107 -74 -136 23 -28 61 -18 107 30 49 52 62
87 40 110 -20 20 -35 19 -73 -4z m28 -13 c-7 -7 -12 -19 -12 -27 0 -12 3 -11
18 2 28 26 36 20 17 -10 -23 -36 -74 -83 -91 -83 -28 0 -14 49 24 90 22 22 43
40 47 40 5 0 4 -5 -3 -12z"/>
<path d="M965 569 c-36 -10 -78 -46 -72 -62 3 -11 15 -18 61 -36 40 -16 19
-36 -40 -36 -27 0 -44 -5 -44 -12 0 -27 86 -17 122 14 23 21 13 39 -33 57 -45
18 -48 28 -16 43 38 19 54 22 63 13 12 -12 38 5 30 19 -8 13 -28 13 -71 0z"/>
<path d="M1380 558 c-62 -32 -66 -62 -11 -79 23 -7 41 -18 41 -25 0 -16 -60
-29 -89 -19 -23 7 -28 -7 -8 -22 29 -23 122 9 122 42 0 18 -25 36 -70 50 -19
6 -19 7 5 26 17 13 38 18 65 17 29 -2 40 1 40 11 0 23 -48 23 -95 -1z"/>
<path d="M1581 534 c-31 -47 -48 -104 -37 -122 8 -13 55 -9 84 7 12 6 22 8 21
4 -3 -19 2 -23 20 -13 13 7 22 7 26 0 4 -7 12 -7 25 0 10 6 21 6 24 2 3 -5 22
-8 42 -7 66 4 132 95 69 95 -25 0 -65 -34 -65 -56 0 -6 -7 -14 -15 -18 -20 -7
-19 3 5 42 16 25 17 32 5 32 -8 0 -21 -15 -30 -34 -17 -35 -45 -56 -45 -33 0
15 27 58 48 75 9 6 26 12 39 12 13 0 23 5 23 10 0 6 -12 8 -26 6 -19 -4 -24
-1 -20 10 3 7 1 14 -4 14 -6 0 -10 -4 -10 -8 0 -4 -15 -14 -32 -21 -24 -10
-28 -15 -16 -18 15 -4 15 -7 -3 -38 -20 -33 -49 -64 -49 -51 0 4 7 21 16 37 8
17 13 33 10 36 -6 6 -45 -36 -46 -48 0 -4 -7 -9 -15 -13 -13 -5 -13 -2 1 25
23 46 11 45 -20 -1 -14 -22 -31 -40 -36 -40 -15 0 -12 26 5 40 18 15 20 35 4
24 -7 -4 -1 12 11 34 13 23 28 42 33 42 4 0 -1 -13 -12 -29 -23 -31 -26 -41
-13 -41 8 0 52 71 52 84 0 3 -9 6 -19 6 -12 0 -31 -18 -50 -46z m279 -53 c0
-6 -11 -23 -25 -38 -23 -26 -24 -27 -25 -7 0 12 10 29 23 37 27 19 27 19 27 8z"/>
<path d="M1079 549 c-8 -8 -21 -15 -29 -17 -24 -5 -36 -22 -16 -22 10 0 16 -3
14 -7 -2 -5 -12 -25 -23 -46 -16 -32 -17 -40 -5 -47 9 -5 19 -5 26 1 8 7 14 6
19 0 9 -15 58 12 78 42 20 31 8 52 -27 43 -16 -4 -36 -21 -48 -41 -11 -19 -24
-35 -29 -35 -14 0 -11 10 16 57 18 30 33 43 48 43 13 0 17 3 11 8 -6 4 -13 13
-15 21 -4 12 -7 12 -20 0z m50 -86 c-16 -21 -43 -43 -47 -38 -9 9 24 55 41 55
17 0 18 -2 6 -17z"/>
<path d="M1193 515 c-9 -25 4 -29 17 -6 7 15 7 21 0 21 -6 0 -13 -7 -17 -15z"/>
<path d="M1999 492 c-26 -18 -24 -41 4 -51 20 -8 21 -10 3 -16 -11 -5 -21 -3
-26 5 -7 11 -11 11 -24 1 -20 -17 -21 -1 -1 25 22 29 18 43 -14 42 -22 -1 -34
-10 -55 -41 -34 -53 -25 -59 20 -16 29 26 34 29 25 11 -15 -28 3 -59 24 -42 7
6 15 6 22 -1 14 -14 63 6 63 27 0 9 -9 18 -20 21 -39 10 -22 28 23 24 9 -1 17
4 17 13 0 18 -34 17 -61 -2z"/>
<path d="M652 464 c-21 -32 -28 -54 -17 -54 3 0 21 17 41 38 31 32 34 33 19 8
-20 -34 -10 -49 37 -51 36 -1 78 13 78 27 0 11 -7 10 -30 -4 -10 -7 -23 -9
-27 -4 -4 4 0 12 10 17 9 6 17 15 17 20 0 6 -5 7 -12 3 -7 -4 -8 -3 -4 5 4 6
15 10 23 9 9 -2 18 3 20 10 7 18 -32 15 -51 -4 -9 -8 -16 -22 -16 -29 0 -8 -9
-19 -20 -25 -25 -13 -25 -10 1 34 l21 35 -34 -1 c-27 -1 -39 -8 -56 -34z"/>
<path d="M1218 494 c-4 -3 -14 -7 -24 -8 -20 -3 -98 -119 -92 -138 2 -6 15 5
27 26 14 22 29 35 37 32 19 -7 60 29 72 64 9 23 8 30 -2 30 -7 0 -15 -3 -18
-6z m-7 -42 c-10 -19 -41 -38 -41 -25 0 10 43 54 48 49 2 -2 -1 -13 -7 -24z"/>
<path d="M1473 478 c-40 -46 -36 -76 10 -64 25 6 62 60 52 76 -11 17 -41 11
-62 -12z m41 -10 c-15 -27 -37 -47 -45 -42 -12 7 20 54 38 54 8 0 11 -5 7 -12z"/>
</g>
</svg>
